<svg xmlns="http://www.w3.org/2000/svg"
     width="24" height="24" viewBox="0 0 24 24"
     fill="none" stroke="#5C5C5C">
    <path d="M18.7663 6.32611C18.3753 5.90569 17.9111 5.57219 17.4002 5.34465C16.8893 5.11711 16.3417 5 15.7887 5C15.2357 5 14.6881 5.11711 14.1772 5.34465C13.6663 5.57219 13.2021 5.90569 12.8112 6.32611L11.9998 7.19821L11.1884 6.32611C10.3987 5.4773 9.32768 5.00044 8.21089 5.00044C7.09409 5.00044 6.02303 5.4773 5.23334 6.32611C4.44365 7.17492 4 8.32616 4 9.52656C4 10.727 4.44365 11.8782 5.23334 12.727L6.0447 13.5991L11.9998 20L17.9549 13.5991L18.7663 12.727C19.1574 12.3068 19.4677 11.8079 19.6794 11.2587C19.891 10.7096 20 10.121 20 9.52656C20 8.93214 19.891 8.34355 19.6794 7.7944C19.4677 7.24526 19.1574 6.74633 18.7663 6.32611Z"
          stroke-width="2" stroke-linecap="round" stroke-linejoin="round"/>
</svg>
