<svg xmlns="http://www.w3.org/2000/svg"
     viewBox="0 0 100 100" fill="black" >
    <path d="M92.2891 11.3207C89.8456 8.68278 86.9445 6.59022 83.7514 5.16253C80.5583 3.73484 77.1358 3 73.6794 3C70.223 3 66.8005 3.73484 63.6074 5.16253C60.4143 6.59022 57.5132 8.68278 55.0697 11.3207L49.9987 16.7927L44.9277 11.3207C39.9921 5.99481 33.298 3.00276 26.318 3.00276C19.3381 3.00276 12.644 5.99481 7.70838 11.3207C2.77279 16.6466 5.20049e-08 23.87 0 31.4019C-5.20049e-08 38.9338 2.77279 46.1573 7.70838 51.4832L12.7794 56.9552L49.9987 97.1176L87.2181 56.9552L92.2891 51.4832C94.7337 48.8465 96.6729 45.7159 97.9959 42.2703C99.319 38.8247 100 35.1316 100 31.4019C100 27.6722 99.319 23.9791 97.9959 20.5335C96.6729 17.0879 94.7337 13.9573 92.2891 11.3207Z" stroke="none"/>
</svg>
