<svg xmlns="http://www.w3.org/2000/svg"
     viewBox="0 0 100 100"
     fill="black" >
    <path d="M48.535 75.9267L46.3354 79.9595L48.535 75.9267ZM92.8518 47.6143L91.19 51.8969L92.8518 47.6143ZM93.2104 53.1579L91.0107 49.1251L93.2104 53.1579ZM49.1503 31.509L47.5034 27.2206L49.1503 31.509ZM51.356 31.5128L49.6943 35.7954L49.6943 35.7954L51.356 31.5128ZM6.81631 53.1723L4.6167 57.2052L6.81631 53.1723ZM8.83167 51.9132L50.7971 35.7974L47.5034 27.2206L5.53797 43.3365L8.83167 51.9132ZM49.6943 35.7954L91.19 51.8969L94.5136 43.3317L53.0178 27.2302L49.6943 35.7954ZM4.6167 57.2052L46.3354 79.9595L50.7346 71.8938L9.01592 49.1395L4.6167 57.2052ZM53.6676 79.9594L95.4102 57.1907L91.0107 49.1251L49.2681 71.8938L53.6676 79.9594ZM46.3354 79.9595C48.6205 81.2059 51.3824 81.2059 53.6676 79.9594L49.2681 71.8938C49.7252 71.6445 50.2776 71.6445 50.7346 71.8938L46.3354 79.9595ZM91.19 51.8969C89.9753 51.4256 89.8669 49.7491 91.0107 49.1251L95.4102 57.1907C101.129 54.0711 100.587 45.6884 94.5136 43.3317L91.19 51.8969ZM50.7971 35.7974C50.442 35.9337 50.0489 35.9331 49.6943 35.7954L53.0178 27.2302C51.2447 26.5422 49.2789 26.5388 47.5034 27.2206L50.7971 35.7974ZM5.53797 43.3365C-0.555528 45.6766 -1.11373 54.0797 4.6167 57.2052L9.01592 49.1395C10.162 49.7646 10.0504 51.4452 8.83167 51.9132L5.53797 43.3365Z" stroke="none"/>
</svg>
